# WaveFront *.obj file (generated by CINEMA 4D)

v 198.88124084472656 -25 -25
v 198.88124084472656 -25 -20
v 198.88124084472656 -25 -15
v 198.88124084472656 -25 -10
v 198.88124084472656 -25 -4.99999952316284
v 198.88124084472656 -25 0.00000037252903
v 198.88124084472656 -25 5.00000047683716
v 198.88124084472656 -25 10.00000095367432
v 198.88124084472656 -25 15.00000095367432
v 198.88124084472656 -25 20
v 198.88124084472656 -25 25
v 198.88124084472656 -20 -25
v 198.88124084472656 -20 -20
v 198.88124084472656 -20 -15
v 198.88124084472656 -20 -10
v 198.88124084472656 -20 -4.99999952316284
v 198.88124084472656 -20 0.00000037252903
v 198.88124084472656 -20 5.00000047683716
v 198.88124084472656 -20 10.00000095367432
v 198.88124084472656 -20 15.00000095367432
v 198.88124084472656 -20 20
v 198.88124084472656 -20 25
v 198.88124084472656 -15 -25
v 198.88124084472656 -15 -20
v 198.88124084472656 -15 -15
v 198.88124084472656 -15 -10
v 198.88124084472656 -15 -4.99999952316284
v 198.88124084472656 -15 0.00000037252903
v 198.88124084472656 -15 5.00000047683716
v 198.88124084472656 -15 10.00000095367432
v 198.88124084472656 -15 15.00000095367432
v 198.88124084472656 -15 20
v 198.88124084472656 -15 25
v 198.88124084472656 -10 -25
v 198.88124084472656 -10 -20
v 198.88124084472656 -10 -15
v 198.88124084472656 -10 -10
v 198.88124084472656 -10 -4.99999952316284
v 198.88124084472656 -10 0.00000037252903
v 198.88124084472656 -10 5.00000047683716
v 198.88124084472656 -10 10.00000095367432
v 198.88124084472656 -10 15.00000095367432
v 198.88124084472656 -10 20
v 198.88124084472656 -10 25
v 198.88124084472656 -4.99999952316284 -25
v 198.88124084472656 -4.99999952316284 -20
v 198.88124084472656 -4.99999952316284 -15
v 198.88124084472656 -4.99999952316284 -10
v 198.88124084472656 -4.99999952316284 -4.99999952316284
v 198.88124084472656 -4.99999952316284 0.00000037252903
v 198.88124084472656 -4.99999952316284 5.00000047683716
v 198.88124084472656 -4.99999952316284 10.00000095367432
v 198.88124084472656 -4.99999952316284 15.00000095367432
v 198.88124084472656 -4.99999952316284 20
v 198.88124084472656 -4.99999952316284 25
v 198.88124084472656 0.00000037252903 -25
v 198.88124084472656 0.00000037252903 -20
v 198.88124084472656 0.00000037252903 -15
v 198.88124084472656 0.00000037252903 -10
v 198.88124084472656 0.00000037252903 -4.99999952316284
v 198.88124084472656 0.00000037252903 0.00000037252903
v 198.88124084472656 0.00000037252903 5.00000047683716
v 198.88124084472656 0.00000037252903 10.00000095367432
v 198.88124084472656 0.00000037252903 15.00000095367432
v 198.88124084472656 0.00000037252903 20
v 198.88124084472656 0.00000037252903 25
v 198.88124084472656 5.00000047683716 -25
v 198.88124084472656 5.00000047683716 -20
v 198.88124084472656 5.00000047683716 -15
v 198.88124084472656 5.00000047683716 -10
v 198.88124084472656 5.00000047683716 -4.99999952316284
v 198.88124084472656 5.00000047683716 0.00000037252903
v 198.88124084472656 5.00000047683716 5.00000047683716
v 198.88124084472656 5.00000047683716 10.00000095367432
v 198.88124084472656 5.00000047683716 15.00000095367432
v 198.88124084472656 5.00000047683716 20
v 198.88124084472656 5.00000047683716 25
v 198.88124084472656 10.00000095367432 -25
v 198.88124084472656 10.00000095367432 -20
v 198.88124084472656 10.00000095367432 -15
v 198.88124084472656 10.00000095367432 -10
v 198.88124084472656 10.00000095367432 -4.99999952316284
v 198.88124084472656 10.00000095367432 0.00000037252903
v 198.88124084472656 10.00000095367432 5.00000047683716
v 198.88124084472656 10.00000095367432 10.00000095367432
v 198.88124084472656 10.00000095367432 15.00000095367432
v 198.88124084472656 10.00000095367432 20
v 198.88124084472656 10.00000095367432 25
v 198.88124084472656 15.00000095367432 -25
v 198.88124084472656 15.00000095367432 -20
v 198.88124084472656 15.00000095367432 -15
v 198.88124084472656 15.00000095367432 -10
v 198.88124084472656 15.00000095367432 -4.99999952316284
v 198.88124084472656 15.00000095367432 0.00000037252903
v 198.88124084472656 15.00000095367432 5.00000047683716
v 198.88124084472656 15.00000095367432 10.00000095367432
v 198.88124084472656 15.00000095367432 15.00000095367432
v 198.88124084472656 15.00000095367432 20
v 198.88124084472656 15.00000095367432 25
v 198.88124084472656 20 -25
v 198.88124084472656 20 -20
v 198.88124084472656 20 -15
v 198.88124084472656 20 -10
v 198.88124084472656 20 -4.99999952316284
v 198.88124084472656 20 0.00000037252903
v 198.88124084472656 20 5.00000047683716
v 198.88124084472656 20 10.00000095367432
v 198.88124084472656 20 15.00000095367432
v 198.88124084472656 20 20
v 198.88124084472656 20 25
v 198.88124084472656 25 -25
v 198.88124084472656 25 -20
v 198.88124084472656 25 -15
v 198.88124084472656 25 -10
v 198.88124084472656 25 -4.99999952316284
v 198.88124084472656 25 0.00000037252903
v 198.88124084472656 25 5.00000047683716
v 198.88124084472656 25 10.00000095367432
v 198.88124084472656 25 15.00000095367432
v 198.88124084472656 25 20
v 198.88124084472656 25 25
# 121 vertices

vn -1 0 0
vn 0 0 0
# 2 normals

vt 0 0 0
vt 0 0.10000002384186 0
vt 0.09999999403954 0.10000002384186 0
vt 0 1 0
vt 0.09999999403954 0 0
vt 0.19999998807907 0.10000002384186 0
vt 0.19999998807907 0 0
vt 0.30000001192093 0.10000002384186 0
vt 0.30000001192093 0 0
vt 0.39999997615814 0.10000002384186 0
vt 0.39999997615814 0 0
vt 0.5 0.10000002384186 0
vt 0.5 0 0
vt 0.60000002384186 0.10000002384186 0
vt 0.60000002384186 0 0
vt 0.69999992847443 0.10000002384186 0
vt 0.69999992847443 0 0
vt 0.79999995231628 0.10000002384186 0
vt 0.79999995231628 0 0
vt 0.89999997615814 0.10000002384186 0
vt 0.89999997615814 0 0
vt 1 0.10000002384186 0
vt 0 0.20000004768372 0
vt 0.09999999403954 0.20000004768372 0
vt 0.19999998807907 0.20000004768372 0
vt 0.30000001192093 0.20000004768372 0
vt 0.39999997615814 0.20000004768372 0
vt 0.5 0.20000004768372 0
vt 0.60000002384186 0.20000004768372 0
vt 0.69999992847443 0.20000004768372 0
vt 0.79999995231628 0.20000004768372 0
vt 0.89999997615814 0.20000004768372 0
vt 1 0.20000004768372 0
vt 0 0.30000007152557 0
vt 0.09999999403954 0.30000007152557 0
vt 0.19999998807907 0.30000007152557 0
vt 0.30000001192093 0.30000007152557 0
vt 0.39999997615814 0.30000007152557 0
vt 0.5 0.30000007152557 0
vt 0.60000002384186 0.30000007152557 0
vt 0.69999992847443 0.30000007152557 0
vt 0.79999995231628 0.30000007152557 0
vt 0.89999997615814 0.30000007152557 0
vt 1 0.30000007152557 0
vt 0 0.39999997615814 0
vt 0.09999999403954 0.39999997615814 0
vt 0.19999998807907 0.39999997615814 0
vt 0.30000001192093 0.39999997615814 0
vt 0.39999997615814 0.39999997615814 0
vt 0.5 0.39999997615814 0
vt 0.60000002384186 0.39999997615814 0
vt 0.69999992847443 0.39999997615814 0
vt 0.79999995231628 0.39999997615814 0
vt 0.89999997615814 0.39999997615814 0
vt 1 0.39999997615814 0
vt 0 0.5 0
vt 0.09999999403954 0.5 0
vt 0.19999998807907 0.5 0
vt 0.30000001192093 0.5 0
vt 0.39999997615814 0.5 0
vt 0.5 0.5 0
vt 0.60000002384186 0.5 0
vt 0.69999992847443 0.5 0
vt 0.79999995231628 0.5 0
vt 0.89999997615814 0.5 0
vt 1 0.5 0
vt 0 0.60000002384186 0
vt 0.09999999403954 0.60000002384186 0
vt 0.19999998807907 0.60000002384186 0
vt 0.30000001192093 0.60000002384186 0
vt 0.39999997615814 0.60000002384186 0
vt 0.5 0.60000002384186 0
vt 0.60000002384186 0.60000002384186 0
vt 0.69999992847443 0.60000002384186 0
vt 0.79999995231628 0.60000002384186 0
vt 0.89999997615814 0.60000002384186 0
vt 1 0.60000002384186 0
vt 0 0.69999998807907 0
vt 0.09999999403954 0.69999998807907 0
vt 0.19999998807907 0.69999998807907 0
vt 0.30000001192093 0.69999998807907 0
vt 0.39999997615814 0.69999998807907 0
vt 0.5 0.69999998807907 0
vt 0.60000002384186 0.69999998807907 0
vt 0.69999992847443 0.69999998807907 0
vt 0.79999995231628 0.69999998807907 0
vt 0.89999997615814 0.69999998807907 0
vt 1 0.69999998807907 0
vt 0 0.80000001192093 0
vt 0.09999999403954 0.80000001192093 0
vt 0.19999998807907 0.80000001192093 0
vt 0.30000001192093 0.80000001192093 0
vt 0.39999997615814 0.80000001192093 0
vt 0.5 0.80000001192093 0
vt 0.60000002384186 0.80000001192093 0
vt 0.69999992847443 0.80000001192093 0
vt 0.79999995231628 0.80000001192093 0
vt 0.89999997615814 0.80000001192093 0
vt 1 0.80000001192093 0
vt 0 0.90000003576279 0
vt 0.09999999403954 0.90000003576279 0
vt 0.19999998807907 0.90000003576279 0
vt 0.30000001192093 0.90000003576279 0
vt 0.39999997615814 0.90000003576279 0
vt 0.5 0.90000003576279 0
vt 0.60000002384186 0.90000003576279 0
vt 0.69999992847443 0.90000003576279 0
vt 0.79999995231628 0.90000003576279 0
vt 0.89999997615814 0.90000003576279 0
vt 1 0.90000003576279 0
vt 0.09999999403954 1 0
vt 0.19999998807907 1 0
vt 0.30000001192093 1 0
vt 0.39999997615814 1 0
vt 0.5 1 0
vt 0.60000002384186 1 0
vt 0.69999992847443 1 0
vt 0.79999995231628 1 0
vt 0.89999997615814 1 0
vt 1 1 0
vt 1 0 0
# 121 texture coordinates

o å¹³é¢
usemtl default
f 13/3/1 12/2/1 1/1/1
f 14/6/1 13/3/1 2/5/1
f 15/8/1 14/6/1 3/7/1
f 16/10/1 15/8/1 4/9/1
f 17/12/1 16/10/1 5/11/1
f 18/14/1 17/12/1 6/13/1
f 19/16/1 18/14/1 7/15/1
f 20/18/1 19/16/1 8/17/1
f 21/20/1 20/18/1 9/19/1
f 22/22/1 21/20/1 10/21/1
f 24/24/1 23/23/1 12/2/1
f 25/25/1 24/24/1 13/3/1
f 26/26/1 25/25/1 14/6/1
f 27/27/1 26/26/1 15/8/1
f 28/28/1 27/27/1 16/10/1
f 29/29/1 28/28/1 17/12/1
f 30/30/1 29/29/1 18/14/1
f 31/31/1 30/30/1 19/16/1
f 32/32/1 31/31/1 20/18/1
f 33/33/1 32/32/1 21/20/1
f 35/35/1 34/34/1 23/23/1
f 36/36/1 35/35/1 24/24/1
f 37/37/1 36/36/1 25/25/1
f 38/38/1 37/37/1 26/26/1
f 39/39/1 38/38/1 27/27/1
f 40/40/1 39/39/1 28/28/1
f 41/41/1 40/40/1 29/29/1
f 42/42/1 41/41/1 30/30/1
f 43/43/1 42/42/1 31/31/1
f 44/44/1 43/43/1 32/32/1
f 46/46/1 45/45/1 34/34/1
f 47/47/1 46/46/1 35/35/1
f 48/48/1 47/47/1 36/36/1
f 49/49/1 48/48/1 37/37/1
f 50/50/1 49/49/1 38/38/1
f 51/51/1 50/50/1 39/39/1
f 52/52/1 51/51/1 40/40/1
f 53/53/1 52/52/1 41/41/1
f 54/54/1 53/53/1 42/42/1
f 55/55/1 54/54/1 43/43/1
f 57/57/1 56/56/1 45/45/1
f 58/58/1 57/57/1 46/46/1
f 59/59/1 58/58/1 47/47/1
f 60/60/1 59/59/1 48/48/1
f 61/61/1 60/60/1 49/49/1
f 62/62/1 61/61/1 50/50/1
f 63/63/1 62/62/1 51/51/1
f 64/64/1 63/63/1 52/52/1
f 65/65/1 64/64/1 53/53/1
f 66/66/1 65/65/1 54/54/1
f 68/68/1 67/67/1 56/56/1
f 69/69/1 68/68/1 57/57/1
f 70/70/1 69/69/1 58/58/1
f 71/71/1 70/70/1 59/59/1
f 72/72/1 71/71/1 60/60/1
f 73/73/1 72/72/1 61/61/1
f 74/74/1 73/73/1 62/62/1
f 75/75/1 74/74/1 63/63/1
f 76/76/1 75/75/1 64/64/1
f 77/77/1 76/76/1 65/65/1
f 79/79/1 78/78/1 67/67/1
f 80/80/1 79/79/1 68/68/1
f 81/81/1 80/80/1 69/69/1
f 82/82/1 81/81/1 70/70/1
f 83/83/1 82/82/1 71/71/1
f 84/84/1 83/83/1 72/72/1
f 85/85/1 84/84/1 73/73/1
f 86/86/1 85/85/1 74/74/1
f 87/87/1 86/86/1 75/75/1
f 88/88/1 87/87/1 76/76/1
f 90/90/1 89/89/1 78/78/1
f 91/91/1 90/90/1 79/79/1
f 92/92/1 91/91/1 80/80/1
f 93/93/1 92/92/1 81/81/1
f 94/94/1 93/93/1 82/82/1
f 95/95/1 94/94/1 83/83/1
f 96/96/1 95/95/1 84/84/1
f 97/97/1 96/96/1 85/85/1
f 98/98/1 97/97/1 86/86/1
f 99/99/1 98/98/1 87/87/1
f 101/101/1 100/100/1 89/89/1
f 102/102/1 101/101/1 90/90/1
f 103/103/1 102/102/1 91/91/1
f 104/104/1 103/103/1 92/92/1
f 105/105/1 104/104/1 93/93/1
f 106/106/1 105/105/1 94/94/1
f 107/107/1 106/106/1 95/95/1
f 108/108/1 107/107/1 96/96/1
f 109/109/1 108/108/1 97/97/1
f 110/110/1 109/109/1 98/98/1
f 112/111/1 111/4/1 100/100/1
f 113/112/1 112/111/1 101/101/1
f 114/113/1 113/112/1 102/102/1
f 115/114/1 114/113/1 103/103/1
f 116/115/1 115/114/1 104/104/1
f 117/116/1 116/115/1 105/105/1
f 118/117/1 117/116/1 106/106/1
f 119/118/1 118/117/1 107/107/1
f 120/119/1 119/118/1 108/108/1
f 121/120/1 120/119/1 109/109/1
f 2/5/1 13/3/1 1/1/1
f 3/7/1 14/6/1 2/5/1
f 4/9/1 15/8/1 3/7/1
f 5/11/1 16/10/1 4/9/1
f 6/13/1 17/12/1 5/11/1
f 7/15/1 18/14/1 6/13/1
f 8/17/1 19/16/1 7/15/1
f 9/19/1 20/18/1 8/17/1
f 10/21/1 21/20/1 9/19/1
f 11/121/1 22/22/1 10/21/1
f 13/3/1 24/24/1 12/2/1
f 14/6/1 25/25/1 13/3/1
f 15/8/1 26/26/1 14/6/1
f 16/10/1 27/27/1 15/8/1
f 17/12/1 28/28/1 16/10/1
f 18/14/1 29/29/1 17/12/1
f 19/16/1 30/30/1 18/14/1
f 20/18/1 31/31/1 19/16/1
f 21/20/1 32/32/1 20/18/1
f 22/22/1 33/33/1 21/20/1
f 24/24/1 35/35/1 23/23/1
f 25/25/1 36/36/1 24/24/1
f 26/26/1 37/37/1 25/25/1
f 27/27/1 38/38/1 26/26/1
f 28/28/1 39/39/1 27/27/1
f 29/29/1 40/40/1 28/28/1
f 30/30/1 41/41/1 29/29/1
f 31/31/1 42/42/1 30/30/1
f 32/32/1 43/43/1 31/31/1
f 33/33/1 44/44/1 32/32/1
f 35/35/1 46/46/1 34/34/1
f 36/36/1 47/47/1 35/35/1
f 37/37/1 48/48/1 36/36/1
f 38/38/1 49/49/1 37/37/1
f 39/39/1 50/50/1 38/38/1
f 40/40/1 51/51/1 39/39/1
f 41/41/1 52/52/1 40/40/1
f 42/42/1 53/53/1 41/41/1
f 43/43/1 54/54/1 42/42/1
f 44/44/1 55/55/1 43/43/1
f 46/46/1 57/57/1 45/45/1
f 47/47/1 58/58/1 46/46/1
f 48/48/1 59/59/1 47/47/1
f 49/49/1 60/60/1 48/48/1
f 50/50/1 61/61/1 49/49/1
f 51/51/1 62/62/1 50/50/1
f 52/52/1 63/63/1 51/51/1
f 53/53/1 64/64/1 52/52/1
f 54/54/1 65/65/1 53/53/1
f 55/55/1 66/66/1 54/54/1
f 57/57/1 68/68/1 56/56/1
f 58/58/1 69/69/1 57/57/1
f 59/59/1 70/70/1 58/58/1
f 60/60/1 71/71/1 59/59/1
f 61/61/1 72/72/1 60/60/1
f 62/62/1 73/73/1 61/61/1
f 63/63/1 74/74/1 62/62/1
f 64/64/1 75/75/1 63/63/1
f 65/65/1 76/76/1 64/64/1
f 66/66/1 77/77/1 65/65/1
f 68/68/1 79/79/1 67/67/1
f 69/69/1 80/80/1 68/68/1
f 70/70/1 81/81/1 69/69/1
f 71/71/1 82/82/1 70/70/1
f 72/72/1 83/83/1 71/71/1
f 73/73/1 84/84/1 72/72/1
f 74/74/1 85/85/1 73/73/1
f 75/75/1 86/86/1 74/74/1
f 76/76/1 87/87/1 75/75/1
f 77/77/1 88/88/1 76/76/1
f 79/79/1 90/90/1 78/78/1
f 80/80/1 91/91/1 79/79/1
f 81/81/1 92/92/1 80/80/1
f 82/82/1 93/93/1 81/81/1
f 83/83/1 94/94/1 82/82/1
f 84/84/1 95/95/1 83/83/1
f 85/85/1 96/96/1 84/84/1
f 86/86/1 97/97/1 85/85/1
f 87/87/1 98/98/1 86/86/1
f 88/88/1 99/99/1 87/87/1
f 90/90/1 101/101/1 89/89/1
f 91/91/1 102/102/1 90/90/1
f 92/92/1 103/103/1 91/91/1
f 93/93/1 104/104/1 92/92/1
f 94/94/1 105/105/1 93/93/1
f 95/95/1 106/106/1 94/94/1
f 96/96/1 107/107/1 95/95/1
f 97/97/1 108/108/1 96/96/1
f 98/98/1 109/109/1 97/97/1
f 99/99/1 110/110/1 98/98/1
f 101/101/1 112/111/1 100/100/1
f 102/102/1 113/112/1 101/101/1
f 103/103/1 114/113/1 102/102/1
f 104/104/1 115/114/1 103/103/1
f 105/105/1 116/115/1 104/104/1
f 106/106/1 117/116/1 105/105/1
f 107/107/1 118/117/1 106/106/1
f 108/108/1 119/118/1 107/107/1
f 109/109/1 120/119/1 108/108/1
f 110/110/1 121/120/1 109/109/1

